<mxfile host="65bd71144e">
    <diagram id="dAUBXbySzLfoptoOB9Iw" name="Page-1">
        <mxGraphModel dx="1797" dy="1340" grid="1" gridSize="5" guides="1" tooltips="1" connect="1" arrows="1" fold="1" page="1" pageScale="1" pageWidth="850" pageHeight="1100" math="0" shadow="0">
            <root>
                <mxCell id="0"/>
                <mxCell id="1" parent="0"/>
                <mxCell id="5" value="" style="strokeWidth=1;shadow=0;dashed=0;align=center;html=1;shape=mxgraph.mockup.containers.browserWindow;rSize=0;strokeColor=#666666;strokeColor2=#008cff;strokeColor3=#c4c4c4;mainText=,;recursiveResize=0;" parent="1" vertex="1">
                    <mxGeometry x="40" y="70" width="1305" height="2025" as="geometry"/>
                </mxCell>
                <mxCell id="6" value="Portfolio" style="strokeWidth=1;shadow=0;dashed=0;align=center;html=1;shape=mxgraph.mockup.containers.anchor;fontSize=17;fontColor=#666666;align=left;" parent="5" vertex="1">
                    <mxGeometry x="60" y="12" width="110" height="26" as="geometry"/>
                </mxCell>
                <mxCell id="7" value="https://immanuelportfolio.com" style="strokeWidth=1;shadow=0;dashed=0;align=center;html=1;shape=mxgraph.mockup.containers.anchor;rSize=0;fontSize=17;fontColor=#666666;align=left;" parent="5" vertex="1">
                    <mxGeometry x="130" y="60" width="250" height="26" as="geometry"/>
                </mxCell>
                <mxCell id="104" value="&lt;span style=&quot;font-size: 20px;&quot;&gt;&lt;b&gt;name&lt;br&gt;&lt;/b&gt;&lt;/span&gt;Title" style="html=1;shadow=0;dashed=0;shape=mxgraph.bootstrap.rrect;rSize=5;strokeColor=#DFDFDF;html=1;whiteSpace=wrap;fillColor=#ffffff;fontColor=#000000;verticalAlign=bottom;align=left;spacing=20;fontSize=14;" parent="5" vertex="1">
                    <mxGeometry x="25" y="235" width="1250" height="310" as="geometry"/>
                </mxCell>
                <mxCell id="105" value="background image" style="html=1;shadow=0;dashed=0;shape=mxgraph.bootstrap.topButton;rSize=5;perimeter=none;whiteSpace=wrap;fillColor=#868E96;strokeColor=#DFDFDF;fontColor=#DEE2E6;resizeWidth=1;fontSize=18;" parent="104" vertex="1">
                    <mxGeometry width="1250" height="180" relative="1" as="geometry"/>
                </mxCell>
                <mxCell id="107" value="&lt;span style=&quot;font-size: 20px;&quot;&gt;&lt;b&gt;About me&lt;/b&gt;&lt;/span&gt;" style="html=1;shadow=0;dashed=0;shape=mxgraph.bootstrap.rrect;rSize=5;strokeColor=#DFDFDF;html=1;whiteSpace=wrap;fillColor=#ffffff;fontColor=#000000;verticalAlign=top;align=left;spacing=20;fontSize=14;spacingLeft=170;" parent="5" vertex="1">
                    <mxGeometry x="385" y="605" width="535" height="240" as="geometry"/>
                </mxCell>
                <mxCell id="108" value="Image" style="html=1;shadow=0;dashed=0;shape=mxgraph.bootstrap.leftButton;rSize=5;perimeter=none;whiteSpace=wrap;fillColor=#868E96;strokeColor=#DFDFDF;fontColor=#DEE2E6;resizeWidth=1;fontSize=18;" parent="107" vertex="1">
                    <mxGeometry width="189.47916666666666" height="240" relative="1" as="geometry"/>
                </mxCell>
                <mxCell id="128" style="edgeStyle=none;html=1;" parent="107" source="108" target="107" edge="1">
                    <mxGeometry relative="1" as="geometry"/>
                </mxCell>
                <mxCell id="110" value="&lt;b&gt;&lt;font style=&quot;font-size: 20px&quot;&gt;Primary card title&lt;/font&gt;&lt;/b&gt;&lt;br style=&quot;font-size: 14px&quot;&gt;&lt;br style=&quot;font-size: 14px&quot;&gt;Some quick example text to build on the card title and make up the bulk of the card's content." style="html=1;shadow=0;dashed=0;shape=mxgraph.bootstrap.rrect;rSize=5;strokeColor=#0071D5;html=1;whiteSpace=wrap;fillColor=#0085FC;fontColor=#ffffff;verticalAlign=bottom;align=left;spacing=20;spacingBottom=0;fontSize=14;" parent="5" vertex="1">
                    <mxGeometry x="135" y="1010" width="250" height="180" as="geometry"/>
                </mxCell>
                <mxCell id="111" value="skill" style="html=1;shadow=0;dashed=0;shape=mxgraph.bootstrap.topButton;rSize=5;perimeter=none;whiteSpace=wrap;fillColor=#0081F4;strokeColor=#0071D5;fontColor=#ffffff;resizeWidth=1;fontSize=18;align=left;spacing=20;" parent="110" vertex="1">
                    <mxGeometry width="250" height="50" relative="1" as="geometry"/>
                </mxCell>
                <mxCell id="112" value="&lt;b&gt;&lt;font style=&quot;font-size: 20px&quot;&gt;Primary card title&lt;/font&gt;&lt;/b&gt;&lt;br style=&quot;font-size: 14px&quot;&gt;&lt;br style=&quot;font-size: 14px&quot;&gt;Some quick example text to build on the card title and make up the bulk of the card's content." style="html=1;shadow=0;dashed=0;shape=mxgraph.bootstrap.rrect;rSize=5;strokeColor=#0071D5;html=1;whiteSpace=wrap;fillColor=#0085FC;fontColor=#ffffff;verticalAlign=bottom;align=left;spacing=20;spacingBottom=0;fontSize=14;" parent="5" vertex="1">
                    <mxGeometry x="527.5" y="1010" width="250" height="180" as="geometry"/>
                </mxCell>
                <mxCell id="113" value="skill" style="html=1;shadow=0;dashed=0;shape=mxgraph.bootstrap.topButton;rSize=5;perimeter=none;whiteSpace=wrap;fillColor=#0081F4;strokeColor=#0071D5;fontColor=#ffffff;resizeWidth=1;fontSize=18;align=left;spacing=20;" parent="112" vertex="1">
                    <mxGeometry width="250" height="50" relative="1" as="geometry"/>
                </mxCell>
                <mxCell id="114" value="&lt;b&gt;&lt;font style=&quot;font-size: 20px&quot;&gt;Primary card title&lt;/font&gt;&lt;/b&gt;&lt;br style=&quot;font-size: 14px&quot;&gt;&lt;br style=&quot;font-size: 14px&quot;&gt;Some quick example text to build on the card title and make up the bulk of the card's content." style="html=1;shadow=0;dashed=0;shape=mxgraph.bootstrap.rrect;rSize=5;strokeColor=#0071D5;html=1;whiteSpace=wrap;fillColor=#0085FC;fontColor=#ffffff;verticalAlign=bottom;align=left;spacing=20;spacingBottom=0;fontSize=14;" parent="5" vertex="1">
                    <mxGeometry x="935" y="1010" width="250" height="180" as="geometry"/>
                </mxCell>
                <mxCell id="115" value="skill" style="html=1;shadow=0;dashed=0;shape=mxgraph.bootstrap.topButton;rSize=5;perimeter=none;whiteSpace=wrap;fillColor=#0081F4;strokeColor=#0071D5;fontColor=#ffffff;resizeWidth=1;fontSize=18;align=left;spacing=20;" parent="114" vertex="1">
                    <mxGeometry width="250" height="50" relative="1" as="geometry"/>
                </mxCell>
                <mxCell id="122" value="&lt;b&gt;&lt;font style=&quot;font-size: 20px&quot;&gt;Primary card title&lt;/font&gt;&lt;/b&gt;&lt;br style=&quot;font-size: 14px&quot;&gt;&lt;br style=&quot;font-size: 14px&quot;&gt;Some quick example text to build on the card title and make up the bulk of the card's content." style="html=1;shadow=0;dashed=0;shape=mxgraph.bootstrap.rrect;rSize=5;strokeColor=#0071D5;html=1;whiteSpace=wrap;fillColor=#0085FC;fontColor=#ffffff;verticalAlign=bottom;align=left;spacing=20;spacingBottom=0;fontSize=14;" parent="5" vertex="1">
                    <mxGeometry x="135" y="1280" width="250" height="180" as="geometry"/>
                </mxCell>
                <mxCell id="123" value="skill" style="html=1;shadow=0;dashed=0;shape=mxgraph.bootstrap.topButton;rSize=5;perimeter=none;whiteSpace=wrap;fillColor=#0081F4;strokeColor=#0071D5;fontColor=#ffffff;resizeWidth=1;fontSize=18;align=left;spacing=20;" parent="122" vertex="1">
                    <mxGeometry width="250" height="50" relative="1" as="geometry"/>
                </mxCell>
                <mxCell id="124" value="&lt;b&gt;&lt;font style=&quot;font-size: 20px&quot;&gt;Primary card title&lt;/font&gt;&lt;/b&gt;&lt;br style=&quot;font-size: 14px&quot;&gt;&lt;br style=&quot;font-size: 14px&quot;&gt;Some quick example text to build on the card title and make up the bulk of the card's content." style="html=1;shadow=0;dashed=0;shape=mxgraph.bootstrap.rrect;rSize=5;strokeColor=#0071D5;html=1;whiteSpace=wrap;fillColor=#0085FC;fontColor=#ffffff;verticalAlign=bottom;align=left;spacing=20;spacingBottom=0;fontSize=14;" parent="5" vertex="1">
                    <mxGeometry x="527.5" y="1280" width="250" height="180" as="geometry"/>
                </mxCell>
                <mxCell id="125" value="skill" style="html=1;shadow=0;dashed=0;shape=mxgraph.bootstrap.topButton;rSize=5;perimeter=none;whiteSpace=wrap;fillColor=#0081F4;strokeColor=#0071D5;fontColor=#ffffff;resizeWidth=1;fontSize=18;align=left;spacing=20;" parent="124" vertex="1">
                    <mxGeometry width="250" height="50" relative="1" as="geometry"/>
                </mxCell>
                <mxCell id="126" value="&lt;b&gt;&lt;font style=&quot;font-size: 20px&quot;&gt;Primary card title&lt;/font&gt;&lt;/b&gt;&lt;br style=&quot;font-size: 14px&quot;&gt;&lt;br style=&quot;font-size: 14px&quot;&gt;Some quick example text to build on the card title and make up the bulk of the card's content." style="html=1;shadow=0;dashed=0;shape=mxgraph.bootstrap.rrect;rSize=5;strokeColor=#0071D5;html=1;whiteSpace=wrap;fillColor=#0085FC;fontColor=#ffffff;verticalAlign=bottom;align=left;spacing=20;spacingBottom=0;fontSize=14;" parent="5" vertex="1">
                    <mxGeometry x="935" y="1280" width="250" height="180" as="geometry"/>
                </mxCell>
                <mxCell id="127" value="Header" style="html=1;shadow=0;dashed=0;shape=mxgraph.bootstrap.topButton;rSize=5;perimeter=none;whiteSpace=wrap;fillColor=#0081F4;strokeColor=#0071D5;fontColor=#ffffff;resizeWidth=1;fontSize=18;align=left;spacing=20;" parent="126" vertex="1">
                    <mxGeometry width="250" height="50" relative="1" as="geometry"/>
                </mxCell>
                <mxCell id="148" value="" style="html=1;shadow=0;dashed=0;shape=mxgraph.bootstrap.rrect;rSize=5;strokeColor=#DFDFDF;html=1;whiteSpace=wrap;fillColor=#ffffff;" parent="5" vertex="1">
                    <mxGeometry x="260" y="1520" width="780" height="370" as="geometry"/>
                </mxCell>
                <mxCell id="149" value="&lt;span style=&quot;font-size: 20px;&quot;&gt;&lt;b&gt;project 1&lt;br&gt;&lt;/b&gt;&lt;/span&gt;&lt;br&gt;This is a wider card with supporting text below as a natural lead-in to additional content. This content is a little bit longer." style="html=1;shadow=0;dashed=0;shape=mxgraph.bootstrap.leftButton;rSize=5;strokeColor=#DFDFDF;html=1;whiteSpace=wrap;fillColor=#ffffff;fontColor=#000000;verticalAlign=top;align=left;spacing=20;spacingBottom=0;fontSize=14;spacingTop=160;" parent="148" vertex="1">
                    <mxGeometry width="260" height="370" relative="1" as="geometry"/>
                </mxCell>
                <mxCell id="150" value="Image cap" style="html=1;shadow=0;dashed=0;shape=mxgraph.basic.corner_round_rect;dx=2;perimeter=none;whiteSpace=wrap;fillColor=#868E96;strokeColor=#DFDFDF;fontColor=#DEE2E6;resizeWidth=1;fontSize=18;" parent="149" vertex="1">
                    <mxGeometry width="260" height="160" relative="1" as="geometry"/>
                </mxCell>
                <mxCell id="151" value="" style="html=1;shadow=0;dashed=0;shape=mxgraph.basic.corner_round_rect;dx=2;flipV=1;perimeter=none;whiteSpace=wrap;fillColor=#F7F7F7;strokeColor=#DFDFDF;fontColor=#6C767D;resizeWidth=1;fontSize=13;align=left;spacing=20;" parent="149" vertex="1">
                    <mxGeometry y="1" width="260" height="50" relative="1" as="geometry">
                        <mxPoint y="-50" as="offset"/>
                    </mxGeometry>
                </mxCell>
                <mxCell id="169" value="link" style="rounded=1;fillColor=#0057D8;strokeColor=none;html=1;fontColor=#ffffff;align=center;verticalAlign=middle;fontStyle=0;fontSize=12;sketch=0;" vertex="1" parent="149">
                    <mxGeometry x="82" y="330" width="86" height="33" as="geometry"/>
                </mxCell>
                <mxCell id="152" value="&lt;b style=&quot;font-size: 20px;&quot;&gt;project 2&lt;br&gt;&lt;/b&gt;&lt;br&gt;This card has supporting text below as a natural lead-in to additional content." style="html=1;shadow=0;dashed=0;strokeColor=#DFDFDF;html=1;whiteSpace=wrap;fillColor=#ffffff;fontColor=#000000;verticalAlign=top;align=left;spacing=20;spacingBottom=0;fontSize=14;spacingTop=160;" parent="148" vertex="1">
                    <mxGeometry width="260" height="370" relative="1" as="geometry">
                        <mxPoint x="260" as="offset"/>
                    </mxGeometry>
                </mxCell>
                <mxCell id="153" value="Image cap" style="html=1;shadow=0;dashed=0;perimeter=none;whiteSpace=wrap;fillColor=#868E96;strokeColor=#DFDFDF;fontColor=#DEE2E6;resizeWidth=1;fontSize=18;" parent="152" vertex="1">
                    <mxGeometry width="260" height="160" relative="1" as="geometry"/>
                </mxCell>
                <mxCell id="154" value="" style="html=1;shadow=0;dashed=0;perimeter=none;whiteSpace=wrap;fillColor=#F7F7F7;strokeColor=#DFDFDF;fontColor=#6C767D;resizeWidth=1;fontSize=13;align=left;spacing=20;" parent="152" vertex="1">
                    <mxGeometry y="1" width="260" height="50" relative="1" as="geometry">
                        <mxPoint y="-50" as="offset"/>
                    </mxGeometry>
                </mxCell>
                <mxCell id="176" value="link" style="rounded=1;fillColor=#0057D8;strokeColor=none;html=1;fontColor=#ffffff;align=center;verticalAlign=middle;fontStyle=0;fontSize=12;sketch=0;" vertex="1" parent="152">
                    <mxGeometry x="90" y="330" width="86" height="33" as="geometry"/>
                </mxCell>
                <mxCell id="155" value="&lt;b style=&quot;font-size: 20px;&quot;&gt;project 3&lt;br&gt;&lt;br&gt;&lt;/b&gt;This is a wider card with supporting text below as a natural lead-in to additional content. This card has even longer content than the first to show that equal height action." style="html=1;shadow=0;dashed=0;shape=mxgraph.bootstrap.rightButton;rSize=5;strokeColor=#DFDFDF;html=1;whiteSpace=wrap;fillColor=#ffffff;fontColor=#000000;verticalAlign=top;align=left;spacing=20;spacingBottom=0;fontSize=14;spacingTop=160;" parent="148" vertex="1">
                    <mxGeometry x="1" width="260" height="370" relative="1" as="geometry">
                        <mxPoint x="-260" as="offset"/>
                    </mxGeometry>
                </mxCell>
                <mxCell id="156" value="Image cap" style="html=1;shadow=0;dashed=0;shape=mxgraph.basic.corner_round_rect;dx=2;flipH=1;perimeter=none;whiteSpace=wrap;fillColor=#868E96;strokeColor=#DFDFDF;fontColor=#DEE2E6;resizeWidth=1;fontSize=18;" parent="155" vertex="1">
                    <mxGeometry width="260" height="160" relative="1" as="geometry"/>
                </mxCell>
                <mxCell id="157" value="" style="html=1;shadow=0;dashed=0;shape=mxgraph.basic.corner_round_rect;dx=2;flipV=1;flipH=1;perimeter=none;whiteSpace=wrap;fillColor=#F7F7F7;strokeColor=#DFDFDF;fontColor=#6C767D;resizeWidth=1;fontSize=13;align=left;spacing=20;" parent="155" vertex="1">
                    <mxGeometry y="1" width="260" height="50" relative="1" as="geometry">
                        <mxPoint y="-50" as="offset"/>
                    </mxGeometry>
                </mxCell>
                <mxCell id="177" value="link" style="rounded=1;fillColor=#0057D8;strokeColor=none;html=1;fontColor=#ffffff;align=center;verticalAlign=middle;fontStyle=0;fontSize=12;sketch=0;" vertex="1" parent="155">
                    <mxGeometry x="90" y="330" width="86" height="33" as="geometry"/>
                </mxCell>
                <mxCell id="158" value="" style="html=1;shadow=0;dashed=0;fillColor=#F8F9FA;strokeColor=none;fontSize=16;fontColor=#7C7C7D;align=right;spacing=15;" parent="5" vertex="1">
                    <mxGeometry x="25" y="130" width="1250" height="60" as="geometry"/>
                </mxCell>
                <mxCell id="159" value="Navbar w/ text" style="strokeColor=none;html=1;whiteSpace=wrap;fillColor=none;fontColor=#181819;align=left;fontSize=16;spacing=10;" parent="158" vertex="1">
                    <mxGeometry width="130" height="40" relative="1" as="geometry">
                        <mxPoint x="10" y="10" as="offset"/>
                    </mxGeometry>
                </mxCell>
                <mxCell id="160" value="Skills" style="strokeColor=none;html=1;whiteSpace=wrap;fillColor=none;fontColor=#181819;align=left;fontSize=14;spacing=10;" parent="158" vertex="1">
                    <mxGeometry width="60" height="40" relative="1" as="geometry">
                        <mxPoint x="1025" y="10" as="offset"/>
                    </mxGeometry>
                </mxCell>
                <mxCell id="161" value="Projects" style="strokeColor=none;html=1;whiteSpace=wrap;fillColor=none;fontColor=#7C7C7D;align=left;fontSize=14;spacing=10;" parent="158" vertex="1">
                    <mxGeometry width="80" height="40" relative="1" as="geometry">
                        <mxPoint x="1085" y="10" as="offset"/>
                    </mxGeometry>
                </mxCell>
                <mxCell id="162" value="Contact" style="strokeColor=none;html=1;whiteSpace=wrap;fillColor=none;fontColor=#7C7C7D;align=left;fontSize=14;spacing=10;" parent="158" vertex="1">
                    <mxGeometry width="60" height="40" relative="1" as="geometry">
                        <mxPoint x="1165" y="10" as="offset"/>
                    </mxGeometry>
                </mxCell>
                <mxCell id="168" value="About Me" style="strokeColor=none;html=1;whiteSpace=wrap;fillColor=none;fontColor=#181819;align=left;fontSize=14;spacing=10;" vertex="1" parent="158">
                    <mxGeometry x="940" y="10" width="80" height="40" as="geometry"/>
                </mxCell>
                <mxCell id="163" value="" style="shape=rect;fillColor=#ffffff;strokeColor=#eeeeee;shadow=0;" parent="5" vertex="1">
                    <mxGeometry x="465" y="1975" width="300" height="40" as="geometry"/>
                </mxCell>
                <mxCell id="164" value="linkedin" style="shape=rect;strokeColor=none;fillColor=none;fontSize=12;fontColor=#2196F3;dashed=0;" parent="163" vertex="1">
                    <mxGeometry x="30" width="75" height="40" as="geometry"/>
                </mxCell>
                <mxCell id="178" style="edgeStyle=none;html=1;" edge="1" parent="163" target="163">
                    <mxGeometry relative="1" as="geometry">
                        <mxPoint x="40" y="20" as="sourcePoint"/>
                    </mxGeometry>
                </mxCell>
                <mxCell id="165" value="github" style="shape=rect;strokeColor=none;fillColor=none;fontSize=12;fontColor=#2196F3;dashed=0;" parent="163" vertex="1">
                    <mxGeometry x="125" width="75" height="40" as="geometry"/>
                </mxCell>
                <mxCell id="166" value="email" style="shape=rect;strokeColor=none;fillColor=none;fontSize=12;fontColor=#2196F3;dashed=0;" parent="163" vertex="1">
                    <mxGeometry x="210" width="75" height="40" as="geometry"/>
                </mxCell>
                <mxCell id="179" value="" style="verticalLabelPosition=bottom;verticalAlign=top;html=1;shadow=0;dashed=0;strokeWidth=1;shape=mxgraph.android.phone2;strokeColor=#c0c0c0;" vertex="1" parent="1">
                    <mxGeometry x="1806" y="155" width="743.59" height="4120" as="geometry"/>
                </mxCell>
                <mxCell id="180" value="&lt;span style=&quot;font-size: 20px;&quot;&gt;&lt;b&gt;name&lt;br&gt;&lt;/b&gt;&lt;/span&gt;Title" style="html=1;shadow=0;dashed=0;shape=mxgraph.bootstrap.rrect;rSize=5;strokeColor=#DFDFDF;html=1;whiteSpace=wrap;fillColor=#ffffff;fontColor=#000000;verticalAlign=bottom;align=left;spacing=20;fontSize=14;" vertex="1" parent="1">
                    <mxGeometry x="1870" y="715" width="461.79" height="75" as="geometry"/>
                </mxCell>
                <mxCell id="181" value="background image" style="html=1;shadow=0;dashed=0;shape=mxgraph.bootstrap.topButton;rSize=5;perimeter=none;whiteSpace=wrap;fillColor=#868E96;strokeColor=#DFDFDF;fontColor=#DEE2E6;resizeWidth=1;fontSize=18;" vertex="1" parent="180">
                    <mxGeometry width="620" height="320" relative="1" as="geometry"/>
                </mxCell>
                <mxCell id="182" style="edgeStyle=none;html=1;" edge="1" parent="180" source="181" target="180">
                    <mxGeometry relative="1" as="geometry"/>
                </mxCell>
                <mxCell id="196" value="Immanuel Vattakunnel" style="html=1;shadow=0;dashed=0;shape=mxgraph.bootstrap.rrect;rSize=5;strokeColor=none;strokeWidth=1;fillColor=#6C767D;fontColor=#FFFFFF;whiteSpace=wrap;align=center;verticalAlign=middle;spacingLeft=0;fontStyle=0;fontSize=16;spacing=5;" vertex="1" parent="1">
                    <mxGeometry x="1885" y="560" width="170" height="50" as="geometry"/>
                </mxCell>
                <mxCell id="241" value="&lt;b&gt;&lt;font style=&quot;font-size: 20px&quot;&gt;Primary card title&lt;/font&gt;&lt;/b&gt;&lt;br style=&quot;font-size: 14px&quot;&gt;&lt;br style=&quot;font-size: 14px&quot;&gt;Some quick example text to build on the card title and make up the bulk of the card's content." style="html=1;shadow=0;dashed=0;shape=mxgraph.bootstrap.rrect;rSize=5;strokeColor=#0071D5;html=1;whiteSpace=wrap;fillColor=#0085FC;fontColor=#ffffff;verticalAlign=bottom;align=left;spacing=20;spacingBottom=0;fontSize=14;" vertex="1" parent="1">
                    <mxGeometry x="1880" y="1727" width="250" height="180" as="geometry"/>
                </mxCell>
                <mxCell id="242" value="skill" style="html=1;shadow=0;dashed=0;shape=mxgraph.bootstrap.topButton;rSize=5;perimeter=none;whiteSpace=wrap;fillColor=#0081F4;strokeColor=#0071D5;fontColor=#ffffff;resizeWidth=1;fontSize=18;align=left;spacing=20;" vertex="1" parent="241">
                    <mxGeometry width="250" height="50" relative="1" as="geometry"/>
                </mxCell>
                <mxCell id="243" value="&lt;b&gt;&lt;font style=&quot;font-size: 20px&quot;&gt;Primary card title&lt;/font&gt;&lt;/b&gt;&lt;br style=&quot;font-size: 14px&quot;&gt;&lt;br style=&quot;font-size: 14px&quot;&gt;Some quick example text to build on the card title and make up the bulk of the card's content." style="html=1;shadow=0;dashed=0;shape=mxgraph.bootstrap.rrect;rSize=5;strokeColor=#0071D5;html=1;whiteSpace=wrap;fillColor=#0085FC;fontColor=#ffffff;verticalAlign=bottom;align=left;spacing=20;spacingBottom=0;fontSize=14;" vertex="1" parent="1">
                    <mxGeometry x="2245" y="1722" width="250" height="180" as="geometry"/>
                </mxCell>
                <mxCell id="244" value="skill" style="html=1;shadow=0;dashed=0;shape=mxgraph.bootstrap.topButton;rSize=5;perimeter=none;whiteSpace=wrap;fillColor=#0081F4;strokeColor=#0071D5;fontColor=#ffffff;resizeWidth=1;fontSize=18;align=left;spacing=20;" vertex="1" parent="243">
                    <mxGeometry width="250" height="50" relative="1" as="geometry"/>
                </mxCell>
                <mxCell id="245" value="&lt;b&gt;&lt;font style=&quot;font-size: 20px&quot;&gt;Primary card title&lt;/font&gt;&lt;/b&gt;&lt;br style=&quot;font-size: 14px&quot;&gt;&lt;br style=&quot;font-size: 14px&quot;&gt;Some quick example text to build on the card title and make up the bulk of the card's content." style="html=1;shadow=0;dashed=0;shape=mxgraph.bootstrap.rrect;rSize=5;strokeColor=#0071D5;html=1;whiteSpace=wrap;fillColor=#0085FC;fontColor=#ffffff;verticalAlign=bottom;align=left;spacing=20;spacingBottom=0;fontSize=14;" vertex="1" parent="1">
                    <mxGeometry x="1880" y="1967" width="250" height="180" as="geometry"/>
                </mxCell>
                <mxCell id="246" value="skill" style="html=1;shadow=0;dashed=0;shape=mxgraph.bootstrap.topButton;rSize=5;perimeter=none;whiteSpace=wrap;fillColor=#0081F4;strokeColor=#0071D5;fontColor=#ffffff;resizeWidth=1;fontSize=18;align=left;spacing=20;" vertex="1" parent="245">
                    <mxGeometry width="250" height="50" relative="1" as="geometry"/>
                </mxCell>
                <mxCell id="247" value="&lt;b&gt;&lt;font style=&quot;font-size: 20px&quot;&gt;Primary card title&lt;/font&gt;&lt;/b&gt;&lt;br style=&quot;font-size: 14px&quot;&gt;&lt;br style=&quot;font-size: 14px&quot;&gt;Some quick example text to build on the card title and make up the bulk of the card's content." style="html=1;shadow=0;dashed=0;shape=mxgraph.bootstrap.rrect;rSize=5;strokeColor=#0071D5;html=1;whiteSpace=wrap;fillColor=#0085FC;fontColor=#ffffff;verticalAlign=bottom;align=left;spacing=20;spacingBottom=0;fontSize=14;" vertex="1" parent="1">
                    <mxGeometry x="2245" y="1962" width="250" height="180" as="geometry"/>
                </mxCell>
                <mxCell id="248" value="skill" style="html=1;shadow=0;dashed=0;shape=mxgraph.bootstrap.topButton;rSize=5;perimeter=none;whiteSpace=wrap;fillColor=#0081F4;strokeColor=#0071D5;fontColor=#ffffff;resizeWidth=1;fontSize=18;align=left;spacing=20;" vertex="1" parent="247">
                    <mxGeometry width="250" height="50" relative="1" as="geometry"/>
                </mxCell>
                <mxCell id="249" value="&lt;b&gt;&lt;font style=&quot;font-size: 20px&quot;&gt;Primary card title&lt;/font&gt;&lt;/b&gt;&lt;br style=&quot;font-size: 14px&quot;&gt;&lt;br style=&quot;font-size: 14px&quot;&gt;Some quick example text to build on the card title and make up the bulk of the card's content." style="html=1;shadow=0;dashed=0;shape=mxgraph.bootstrap.rrect;rSize=5;strokeColor=#0071D5;html=1;whiteSpace=wrap;fillColor=#0085FC;fontColor=#ffffff;verticalAlign=bottom;align=left;spacing=20;spacingBottom=0;fontSize=14;" vertex="1" parent="1">
                    <mxGeometry x="1880" y="2202" width="250" height="180" as="geometry"/>
                </mxCell>
                <mxCell id="250" value="skill" style="html=1;shadow=0;dashed=0;shape=mxgraph.bootstrap.topButton;rSize=5;perimeter=none;whiteSpace=wrap;fillColor=#0081F4;strokeColor=#0071D5;fontColor=#ffffff;resizeWidth=1;fontSize=18;align=left;spacing=20;" vertex="1" parent="249">
                    <mxGeometry width="250" height="50" relative="1" as="geometry"/>
                </mxCell>
                <mxCell id="251" value="&lt;b&gt;&lt;font style=&quot;font-size: 20px&quot;&gt;Primary card title&lt;/font&gt;&lt;/b&gt;&lt;br style=&quot;font-size: 14px&quot;&gt;&lt;br style=&quot;font-size: 14px&quot;&gt;Some quick example text to build on the card title and make up the bulk of the card's content." style="html=1;shadow=0;dashed=0;shape=mxgraph.bootstrap.rrect;rSize=5;strokeColor=#0071D5;html=1;whiteSpace=wrap;fillColor=#0085FC;fontColor=#ffffff;verticalAlign=bottom;align=left;spacing=20;spacingBottom=0;fontSize=14;" vertex="1" parent="1">
                    <mxGeometry x="2245" y="2197" width="252.5" height="185" as="geometry"/>
                </mxCell>
                <mxCell id="252" value="skill" style="html=1;shadow=0;dashed=0;shape=mxgraph.bootstrap.topButton;rSize=5;perimeter=none;whiteSpace=wrap;fillColor=#0081F4;strokeColor=#0071D5;fontColor=#ffffff;resizeWidth=1;fontSize=18;align=left;spacing=20;" vertex="1" parent="251">
                    <mxGeometry width="250" height="50" relative="1" as="geometry"/>
                </mxCell>
                <mxCell id="253" value="&lt;span style=&quot;font-size: 20px;&quot;&gt;&lt;b&gt;project 1&lt;br&gt;&lt;/b&gt;&lt;/span&gt;&lt;br&gt;This is a wider card with supporting text below as a natural lead-in to additional content. This content is a little bit longer." style="html=1;shadow=0;dashed=0;shape=mxgraph.bootstrap.leftButton;rSize=5;strokeColor=#DFDFDF;html=1;whiteSpace=wrap;fillColor=#ffffff;fontColor=#000000;verticalAlign=top;align=left;spacing=20;spacingBottom=0;fontSize=14;spacingTop=160;" vertex="1" parent="1">
                    <mxGeometry x="1880" y="2427" width="620" height="370" as="geometry"/>
                </mxCell>
                <mxCell id="254" value="Image cap" style="html=1;shadow=0;dashed=0;shape=mxgraph.basic.corner_round_rect;dx=2;perimeter=none;whiteSpace=wrap;fillColor=#868E96;strokeColor=#DFDFDF;fontColor=#DEE2E6;resizeWidth=1;fontSize=18;" vertex="1" parent="253">
                    <mxGeometry width="620" height="160" relative="1" as="geometry"/>
                </mxCell>
                <mxCell id="255" value="" style="html=1;shadow=0;dashed=0;shape=mxgraph.basic.corner_round_rect;dx=2;flipV=1;perimeter=none;whiteSpace=wrap;fillColor=#F7F7F7;strokeColor=#DFDFDF;fontColor=#6C767D;resizeWidth=1;fontSize=13;align=left;spacing=20;" vertex="1" parent="253">
                    <mxGeometry y="1" width="620" height="50" relative="1" as="geometry">
                        <mxPoint y="-50" as="offset"/>
                    </mxGeometry>
                </mxCell>
                <mxCell id="256" value="link" style="rounded=1;fillColor=#0057D8;strokeColor=none;html=1;fontColor=#ffffff;align=center;verticalAlign=middle;fontStyle=0;fontSize=12;sketch=0;" vertex="1" parent="253">
                    <mxGeometry x="195.53846153846155" y="330" width="205.07692307692307" height="33" as="geometry"/>
                </mxCell>
                <mxCell id="257" value="&lt;span style=&quot;font-size: 20px;&quot;&gt;&lt;b&gt;project 1&lt;br&gt;&lt;/b&gt;&lt;/span&gt;&lt;br&gt;This is a wider card with supporting text below as a natural lead-in to additional content. This content is a little bit longer." style="html=1;shadow=0;dashed=0;shape=mxgraph.bootstrap.leftButton;rSize=5;strokeColor=#DFDFDF;html=1;whiteSpace=wrap;fillColor=#ffffff;fontColor=#000000;verticalAlign=top;align=left;spacing=20;spacingBottom=0;fontSize=14;spacingTop=160;" vertex="1" parent="1">
                    <mxGeometry x="1880" y="2847" width="620" height="370" as="geometry"/>
                </mxCell>
                <mxCell id="258" value="Image cap" style="html=1;shadow=0;dashed=0;shape=mxgraph.basic.corner_round_rect;dx=2;perimeter=none;whiteSpace=wrap;fillColor=#868E96;strokeColor=#DFDFDF;fontColor=#DEE2E6;resizeWidth=1;fontSize=18;" vertex="1" parent="257">
                    <mxGeometry width="620" height="160" relative="1" as="geometry"/>
                </mxCell>
                <mxCell id="259" value="" style="html=1;shadow=0;dashed=0;shape=mxgraph.basic.corner_round_rect;dx=2;flipV=1;perimeter=none;whiteSpace=wrap;fillColor=#F7F7F7;strokeColor=#DFDFDF;fontColor=#6C767D;resizeWidth=1;fontSize=13;align=left;spacing=20;" vertex="1" parent="257">
                    <mxGeometry y="1" width="620" height="50" relative="1" as="geometry">
                        <mxPoint y="-50" as="offset"/>
                    </mxGeometry>
                </mxCell>
                <mxCell id="260" value="link" style="rounded=1;fillColor=#0057D8;strokeColor=none;html=1;fontColor=#ffffff;align=center;verticalAlign=middle;fontStyle=0;fontSize=12;sketch=0;" vertex="1" parent="257">
                    <mxGeometry x="195.53846153846155" y="330" width="205.07692307692307" height="33" as="geometry"/>
                </mxCell>
                <mxCell id="261" value="&lt;span style=&quot;font-size: 20px;&quot;&gt;&lt;b&gt;project 1&lt;br&gt;&lt;/b&gt;&lt;/span&gt;&lt;br&gt;This is a wider card with supporting text below as a natural lead-in to additional content. This content is a little bit longer." style="html=1;shadow=0;dashed=0;shape=mxgraph.bootstrap.leftButton;rSize=5;strokeColor=#DFDFDF;html=1;whiteSpace=wrap;fillColor=#ffffff;fontColor=#000000;verticalAlign=top;align=left;spacing=20;spacingBottom=0;fontSize=14;spacingTop=160;" vertex="1" parent="1">
                    <mxGeometry x="1880" y="3262" width="620" height="370" as="geometry"/>
                </mxCell>
                <mxCell id="262" value="Image cap" style="html=1;shadow=0;dashed=0;shape=mxgraph.basic.corner_round_rect;dx=2;perimeter=none;whiteSpace=wrap;fillColor=#868E96;strokeColor=#DFDFDF;fontColor=#DEE2E6;resizeWidth=1;fontSize=18;" vertex="1" parent="261">
                    <mxGeometry width="620" height="160" relative="1" as="geometry"/>
                </mxCell>
                <mxCell id="263" value="" style="html=1;shadow=0;dashed=0;shape=mxgraph.basic.corner_round_rect;dx=2;flipV=1;perimeter=none;whiteSpace=wrap;fillColor=#F7F7F7;strokeColor=#DFDFDF;fontColor=#6C767D;resizeWidth=1;fontSize=13;align=left;spacing=20;" vertex="1" parent="261">
                    <mxGeometry y="1" width="620" height="50" relative="1" as="geometry">
                        <mxPoint y="-50" as="offset"/>
                    </mxGeometry>
                </mxCell>
                <mxCell id="264" value="link" style="rounded=1;fillColor=#0057D8;strokeColor=none;html=1;fontColor=#ffffff;align=center;verticalAlign=middle;fontStyle=0;fontSize=12;sketch=0;" vertex="1" parent="261">
                    <mxGeometry x="195.53846153846155" y="330" width="205.07692307692307" height="33" as="geometry"/>
                </mxCell>
                <mxCell id="266" value="" style="html=1;verticalLabelPosition=bottom;labelBackgroundColor=#ffffff;verticalAlign=top;shadow=0;dashed=0;strokeWidth=2;shape=mxgraph.ios7.misc.options;fillColor=#eeeeee;sketch=0;strokeColor=#36393d;" vertex="1" parent="1">
                    <mxGeometry x="2425" y="560" width="52" height="45" as="geometry"/>
                </mxCell>
                <mxCell id="272" value="" style="verticalLabelPosition=bottom;verticalAlign=top;html=1;shadow=0;dashed=0;strokeWidth=1;shape=mxgraph.android.contact_badge_normal;sketch=0;labelBackgroundColor=#FFFFFF;fontColor=#F0F0F0;" vertex="1" parent="1">
                    <mxGeometry x="2010" y="1075" width="305" height="305" as="geometry"/>
                </mxCell>
                <mxCell id="306" value="&lt;b&gt;&lt;font style=&quot;font-size: 20px&quot;&gt;Light card title&lt;/font&gt;&lt;/b&gt;&lt;br style=&quot;font-size: 14px&quot;&gt;&lt;br style=&quot;font-size: 14px&quot;&gt;Some quick example text to build on the card title and make up the bulk of the card's content." style="html=1;shadow=0;dashed=0;shape=mxgraph.bootstrap.rrect;rSize=5;strokeColor=#F8F9FA;html=1;whiteSpace=wrap;fillColor=#ffffff;fontColor=#212529;verticalAlign=bottom;align=left;spacing=20;spacingBottom=0;fontSize=14;labelBackgroundColor=#FFFFFF;" vertex="1" parent="1">
                    <mxGeometry x="1915" y="1420" width="555" height="255" as="geometry"/>
                </mxCell>
                <mxCell id="307" value="Header" style="html=1;shadow=0;dashed=0;shape=mxgraph.bootstrap.topButton;rSize=5;perimeter=none;whiteSpace=wrap;fillColor=#F7F7F7;strokeColor=#F8F9FA;fontColor=#6C767D;resizeWidth=1;fontSize=18;align=left;spacing=20;labelBackgroundColor=#FFFFFF;" vertex="1" parent="306">
                    <mxGeometry width="555" height="50" relative="1" as="geometry"/>
                </mxCell>
            </root>
        </mxGraphModel>
    </diagram>
</mxfile>